<svg width="144" height="29" viewBox="0 0 144 29" fill="none" xmlns="http://www.w3.org/2000/svg">
<path fill-rule="evenodd" clip-rule="evenodd" d="M58.4241 5.8752C57.5349 5.3184 56.4718 5.04 55.2347 5.04C53.9009 5.04 52.7073 5.3712 51.6539 6.0336C50.6004 6.696 49.7692 7.64639 49.1603 8.8848C48.5514 10.1232 48.247 11.5872 48.247 13.2768C48.247 14.9472 48.5514 16.4064 49.1603 17.6544C49.7692 18.9024 50.6004 19.8576 51.6539 20.52C52.7073 21.1824 53.9009 21.5136 55.2347 21.5136C56.4718 21.5136 57.5349 21.2352 58.4241 20.6784C59.3133 20.1216 59.9608 19.3632 60.3667 18.4032V21.312H65.3248V0H60.3667V8.1504C59.9608 7.1904 59.3133 6.432 58.4241 5.8752ZM4.95808 21.312V14.1696H8.0315C9.63588 14.1696 10.9986 13.8864 12.1197 13.32C13.2409 12.7536 14.0865 11.976 14.6568 10.9872C15.227 9.9984 15.5121 8.87041 15.5121 7.6032C15.5121 5.56799 14.8742 3.95041 13.5985 2.7504C12.3227 1.55039 10.4671 0.9504 8.0315 0.9504H0V21.312H4.95808ZM10.467 7.6032C10.467 9.35041 9.47158 10.224 7.48061 10.224H4.95808V4.9248H7.48061C9.47158 4.9248 10.467 5.81759 10.467 7.6032ZM22.9057 8.2656C23.5243 7.2864 24.3216 6.5088 25.2978 5.9328C26.2739 5.3568 27.3322 5.0688 28.4727 5.0688V10.3392H27.052C25.7375 10.3392 24.7179 10.6176 23.993 11.1744C23.2682 11.7312 22.9057 12.672 22.9057 13.9968V21.312H17.9477V5.2416H22.9057V8.2656ZM42.4336 6.0336C41.1675 5.3712 39.7323 5.04 38.1279 5.04C36.5235 5.04 35.0835 5.3712 33.8077 6.0336C32.5319 6.696 31.5316 7.65119 30.8068 8.8992C30.0819 10.1472 29.7195 11.6064 29.7195 13.2768C29.7195 14.9472 30.0819 16.4064 30.8068 17.6544C31.5316 18.9024 32.5319 19.8576 33.8077 20.52C35.0835 21.1824 36.5235 21.5136 38.1279 21.5136C39.7323 21.5136 41.1675 21.1824 42.4336 20.52C43.6997 19.8576 44.6952 18.9024 45.42 17.6544C46.1449 16.4064 46.5073 14.9472 46.5073 13.2768C46.5073 11.6064 46.1449 10.1472 45.42 8.8992C44.6952 7.65119 43.6997 6.696 42.4336 6.0336ZM38.1279 9.3024C37.1807 9.3024 36.3834 9.6432 35.7358 10.3248C35.0883 11.0064 34.7645 11.9904 34.7645 13.2768C34.7645 14.5632 35.0883 15.5424 35.7358 16.2144C36.3834 16.8864 37.1807 17.2224 38.1279 17.2224C39.0751 17.2224 39.8676 16.8864 40.5054 16.2144C41.1433 15.5424 41.4623 14.5632 41.4623 13.2768C41.4623 11.9904 41.1433 11.0064 40.5054 10.3248C39.8676 9.6432 39.0751 9.3024 38.1279 9.3024ZM56.8294 9.36C55.7663 9.36 54.9109 9.7056 54.2634 10.3968C53.6158 11.088 53.2921 12.048 53.2921 13.2768C53.2921 14.5056 53.6158 15.4656 54.2634 16.1568C54.9109 16.848 55.7663 17.1936 56.8294 17.1936C57.8732 17.1936 58.7285 16.8384 59.3954 16.128C60.0623 15.4176 60.3957 14.4672 60.3957 13.2768C60.3957 12.0672 60.0623 11.112 59.3954 10.4112C58.7285 9.7104 57.8732 9.36 56.8294 9.36ZM79.8511 21.312H84.8382V5.2416H79.8511V13.7664C79.8511 14.9376 79.5612 15.84 78.9813 16.4736C78.4014 17.1072 77.6089 17.424 76.6037 17.424C75.6372 17.424 74.8689 17.1216 74.2987 16.5168C73.7284 15.912 73.4433 15.0624 73.4433 13.968V5.2416H68.5142V14.5728C68.5142 16.7232 69.0603 18.4128 70.1524 19.6416C71.2446 20.8704 72.7184 21.4848 74.5741 21.4848C75.7919 21.4848 76.8598 21.2064 77.778 20.6496C78.6962 20.0928 79.3872 19.344 79.8511 18.4032V21.312ZM95.5662 5.04C97.6538 5.04 99.4031 5.61119 100.814 6.7536C102.225 7.89601 103.114 9.46559 103.482 11.4624H98.2337C98.079 10.7712 97.7601 10.2336 97.2769 9.8496C96.7936 9.4656 96.1847 9.2736 95.4502 9.2736C94.5804 9.2736 93.8652 9.6144 93.3046 10.296C92.744 10.9776 92.4638 11.9712 92.4638 13.2768C92.4638 14.5824 92.744 15.576 93.3046 16.2576C93.8652 16.9392 94.5804 17.28 95.4502 17.28C96.1847 17.28 96.7936 17.088 97.2769 16.704C97.7601 16.32 98.079 15.7824 98.2337 15.0912H103.482C103.114 17.088 102.225 18.6576 100.814 19.8C99.4031 20.9424 97.6538 21.5136 95.5662 21.5136C93.9811 21.5136 92.5749 21.1824 91.3475 20.52C90.12 19.8576 89.1584 18.9024 88.4625 17.6544C87.7666 16.4064 87.4187 14.9472 87.4187 13.2768C87.4187 11.5872 87.7618 10.1232 88.448 8.8848C89.1342 7.64639 90.0959 6.696 91.333 6.0336C92.5701 5.3712 93.9811 5.04 95.5662 5.04ZM115.225 21.312V17.0784H113.659C113.04 17.0784 112.601 16.9536 112.34 16.704C112.079 16.4544 111.948 16.0128 111.948 15.3792V9.3888H115.196V5.2416H111.948V1.296H106.99V5.2416H104.815V9.3888H106.99V15.2928C106.99 17.4432 107.517 18.984 108.57 19.9152C109.624 20.8464 111.098 21.312 112.992 21.312H115.225ZM122.966 0V21.312H118.008V0H122.966ZM134.013 15.0912L130.128 5.2416H124.59L131.375 20.7072L127.576 28.9728H133.027L143.117 5.2416H137.637L134.013 15.0912Z" fill="#173A56"/>
</svg>
